<?xml version="1.0" encoding="utf-8"?>
<!-- Generator: Adobe Illustrator 28.0.0, SVG Export Plug-In . SVG Version: 6.00 Build 0)  -->
<svg version="1.1" id="Слой_1" xmlns="http://www.w3.org/2000/svg" xmlns:xlink="http://www.w3.org/1999/xlink" x="0px" y="0px"
	 viewBox="0 0 800 800" style="enable-background:new 0 0 800 800;" xml:space="preserve">
<style type="text/css">
	.st0{fill:#174863;}
</style>
<g>
	<g>
		<polygon class="st0" points="300.2,172.5 345.9,243.9 353.5,243.9 312.8,165.2 		"/>
		<polygon class="st0" points="269.5,196.7 316.1,243.9 326.9,243.9 280.2,187 		"/>
		<polygon class="st0" points="244.4,226.7 270.5,243.9 289.1,243.9 252.9,215 		"/>
		<polygon class="st0" points="373.3,145.6 388.2,243.9 393.6,243.9 387.8,144.1 		"/>
		<polygon class="st0" points="335.4,155.2 368.7,243.9 374.8,243.9 349.2,150.7 		"/>
		<polygon class="st0" points="487.2,165.2 446.5,243.9 454.1,243.9 499.8,172.5 		"/>
		<polygon class="st0" points="519.8,187 473.1,243.9 483.9,243.9 530.5,196.7 		"/>
		<polygon class="st0" points="547.1,215 510.9,243.9 529.5,243.9 555.6,226.7 		"/>
		<polygon class="st0" points="412.2,144.1 406.4,243.9 411.8,243.9 426.7,145.6 		"/>
		<polygon class="st0" points="450.8,150.7 425.2,243.9 431.3,243.9 464.6,155.2 		"/>
		<path class="st0" d="M614.1,332.6c0-57.2-22.3-110.9-62.7-151.4c-40.4-40.4-94.2-62.7-151.4-62.7c0,0,0,0,0,0c0,0,0,0,0,0
			c-57.2,0-110.9,22.3-151.4,62.7c-40.4,40.4-62.7,94.2-62.7,151.4c0,57.2,22.3,110.9,62.7,151.4c40.4,40.4,94.2,62.7,151.4,62.7
			c0,0,0,0,0,0c0,0,0,0,0,0c57.2,0,110.9-22.3,151.4-62.7C591.8,443.6,614.1,389.8,614.1,332.6z M568.2,433.4h-20.5v-92.5l20.5-9.4
			V433.4z M601.9,332.6c0,33.9-8.4,65.9-23.2,94c-0.9,1.7-1.8,3.3-2.7,5V431V327.9l25.3-11.6C602,322,601.9,329.7,601.9,332.6z
			 M400,130.7c79.6,0,152.5,46.4,185.3,121.8H214.7C247.5,177,320.4,130.7,400,130.7z M583.8,259.5v42.7h-5.4v-42.7H583.8z
			 M561.5,259.5v42.7h-5.4v-42.7H561.5z M539.1,259.5v42.7h-5.4v-42.7H539.1z M516.8,259.5v42.7h-5.4v-42.7H516.8z M494.4,259.5
			v42.7H489v-42.7H494.4z M467.7,259.5v42.7h-7.3v0v-42.6H467.7z M435.7,259.5v42.7h-7.3v-42.7H435.7z M403.7,259.5v42.7h-7.4v-42.7
			H403.7z M371.6,259.5v42.7h-7.3v-42.7H371.6z M339.6,259.5v42.6v0h-7.3v-42.7H339.6z M311,259.5v42.7h-5.4v-42.7H311z
			 M288.6,259.5v42.7h-5.4v-42.7H288.6z M266.3,259.5v42.7h-5.4v-42.7H266.3z M243.9,259.5v42.7h-5.4v-42.7H243.9z M221.6,259.5
			v42.7h-5.4v-42.7H221.6z M591.1,313.2l-61.1,28.1H270.1l-61.1-28.1H591.1z M539.9,344.5v88.9h-22v-46.8l13.3-8.4v-29.8l0.3,0
			L539.9,344.5z M443.4,402.4c-2.2-0.6-4.6-1.1-7.1-1.6v-15.4h70.2l-26.8,16.9L443.4,402.4z M477.2,409.4v24h-7l-12.5-21.2
			c0,0-1-1.3-2.3-2.8L477.2,409.4z M485,407.3l25-15.8v41.9h-25V407.3z M320.3,402.2l-26.8-16.9h70.2v15.4c-2.6,0.5-5,1.1-7.1,1.6
			L320.3,402.2z M344.5,409.4c-1.3,1.5-2.3,2.8-2.3,2.8l-12.5,21.2h-7v-24L344.5,409.4z M315,407.3v26.1h-25v-41.9L315,407.3z
			 M282.1,386.6v46.8h-22v-88.9l8.4,3.9l0.3,0v29.8L282.1,386.6z M224,431v0.5c-0.9-1.6-1.8-3.3-2.7-5c-14.8-28.1-23.2-60.1-23.2-94
			c0-2.9-0.1-10.6,0.7-16.3l25.3,11.6V431z M231.8,331.5l20.5,9.4v92.5h-20.5V331.5z M252.9,471l-9.5-10.9l26.8-17.8h18.7
			l-35.7,28.5L252.9,471z M271.1,487.7l44.8-45.4h10.9l-44.5,54.1C278.5,493.6,274.7,490.7,271.1,487.7z M302.8,509.4l43-67.1h7.6
			l-38.1,73.4C311.1,513.7,306.9,511.6,302.8,509.4z M337.7,524.5l31-82.2h6.1l-23.7,86C346.5,527.2,342,525.9,337.7,524.5z
			 M388.1,534c-4.6-0.3-9.2-0.7-13.7-1.3l13.8-90.5h5.4L388.1,534z M400,397.6c-10.4,0-20.1,0.7-28.5,1.9v-14.1h57v14.1
			C420.1,398.3,400,397.6,400,397.6z M411.9,534l-5.5-91.7h5.4l13.8,90.5C421.1,533.3,416.5,533.7,411.9,534z M449,528.3l-23.7-86
			h6.1l31,82.2C458,525.9,453.5,527.2,449,528.3z M484.6,515.7l-38.1-73.4h7.6l43,67.1C493.1,511.6,488.9,513.7,484.6,515.7z
			 M517.6,496.4l-44.5-54.1h10.9l44.8,45.4C525.3,490.7,521.5,493.6,517.6,496.4z M546.8,470.8l-35.7-28.5h18.7l26.8,17.8l-9.5,10.9
			L546.8,470.8z"/>
	</g>
	<g>
		<path class="st0" d="M231.8,634.9c0,6.6-1.4,11.3-4.2,14.3c-2.8,3-6.8,4.5-11.9,4.5c-5.2,0-9.2-1.5-12-4.5
			c-2.8-3-4.2-7.7-4.2-14.3v-35.5h-11.8v36c0,9.3,2.5,16.4,7.4,21.3c4.9,4.9,11.8,7.4,20.5,7.4c8.7,0,15.5-2.5,20.4-7.4
			c4.9-4.9,7.4-12,7.4-21.3v-36h-11.7V634.9z"/>
		<rect x="263.7" y="599.4" class="st0" width="11.8" height="63.8"/>
		<path class="st0" d="M337.1,602.2c-4-1.8-8.9-2.7-14.5-2.7h-26.2v63.8h11.8v-18.4h14.4c5.6,0,10.5-0.9,14.5-2.7
			c4-1.8,7.1-4.4,9.3-7.8c2.2-3.4,3.3-7.4,3.3-12.1c0-4.7-1.1-8.7-3.3-12.1C344.3,606.6,341.1,604,337.1,602.2z M333.8,631.4
			c-2.6,2.2-6.6,3.3-11.8,3.3h-13.8v-25.3H322c5.2,0,9.2,1.1,11.8,3.3c2.6,2.2,4,5.3,4,9.4C337.8,626.1,336.5,629.2,333.8,631.4z"/>
		<path class="st0" d="M381.7,599.4L353,663.2h12.2l6.3-14.8h31.9l6.3,14.8h12.4l-28.8-63.8H381.7z M375.5,639.1l11.9-27.9l12,27.9
			H375.5z"/>
		<path class="st0" d="M439.4,648.7c-2.1,0-3.8,0.7-5.3,2s-2.2,3.2-2.2,5.5c0,2.2,0.7,4,2.2,5.4c1.5,1.4,3.2,2.1,5.3,2.1
			c2.1,0,3.8-0.7,5.3-2.1c1.5-1.4,2.2-3.2,2.2-5.4c0-2.3-0.7-4.1-2.2-5.5S441.5,648.7,439.4,648.7z"/>
		<path class="st0" d="M496,617.2c-3.9-2.1-8.4-3.2-13.4-3.2c-5,0-9.4,1.1-13.3,3.2c-3.9,2.1-7,5.1-9.2,8.8c-2.2,3.7-3.4,8-3.4,12.9
			c0,4.8,1.1,9.1,3.4,12.8c2.2,3.8,5.3,6.7,9.2,8.9c3.9,2.2,8.3,3.2,13.3,3.2c5,0,9.5-1.1,13.4-3.2c3.9-2.2,7-5.1,9.2-8.9
			c2.2-3.8,3.3-8,3.3-12.8c0-4.9-1.1-9.2-3.3-12.9C503,622.2,500,619.3,496,617.2z M495.2,647c-1.2,2.3-3,4.1-5.1,5.3
			c-2.2,1.2-4.7,1.8-7.5,1.8c-2.7,0-5.2-0.6-7.3-1.8c-2.2-1.2-3.9-3-5.1-5.3c-1.3-2.3-1.9-5-1.9-8.1c0-3.2,0.6-5.9,1.9-8.2
			c1.3-2.3,3-4,5.1-5.2c2.2-1.2,4.6-1.8,7.4-1.8c2.7,0,5.2,0.6,7.4,1.8c2.2,1.2,3.9,3,5.1,5.2c1.2,2.3,1.9,5,1.9,8.2
			C497.1,642,496.5,644.7,495.2,647z"/>
		<path class="st0" d="M534,621.7v-7.1h-10.8v48.6h11.4v-23.6c0-5,1.3-8.7,3.8-11.2c2.5-2.5,6-3.8,10.3-3.8c0.4,0,0.8,0,1.3,0
			c0.4,0,0.9,0.1,1.4,0.2V614c-4.7,0-8.6,0.9-11.7,2.6C537.2,617.8,535.4,619.5,534,621.7z"/>
		<path class="st0" d="M601.5,614.5v6.5c-1.6-1.9-3.5-3.5-5.7-4.6c-3.3-1.6-7-2.5-11.1-2.5c-4.6,0-8.8,1-12.5,2.9
			c-3.7,1.9-6.7,4.7-8.8,8.2c-2.2,3.5-3.2,7.6-3.2,12.3c0,4.7,1.1,8.9,3.2,12.4c2.2,3.5,5.1,6.3,8.8,8.2c3.7,2,7.9,3,12.5,3
			c4.1,0,7.8-0.8,11.1-2.5c2-1,3.7-2.3,5.2-4v2.6c0,4.9-1.2,8.6-3.7,11.1c-2.5,2.5-6.4,3.7-11.7,3.7c-3.3,0-6.6-0.5-9.9-1.6
			c-3.2-1.1-5.9-2.5-8.1-4.2l-5.1,8.6c2.7,2.2,6.2,4,10.5,5.1c4.3,1.2,8.7,1.8,13.2,1.8c8.5,0,15-2.1,19.5-6.2
			c4.5-4.2,6.7-10.6,6.7-19.4v-41.3H601.5z M599.3,644.6c-1.2,2.1-3,3.7-5.2,4.9c-2.2,1.2-4.8,1.8-7.7,1.8c-2.9,0-5.4-0.6-7.7-1.8
			c-2.3-1.2-4-2.8-5.3-4.9c-1.2-2.1-1.9-4.5-1.9-7.2s0.6-5.1,1.9-7.2c1.2-2.1,3-3.7,5.3-4.8c2.3-1.1,4.8-1.7,7.7-1.7
			c2.9,0,5.4,0.6,7.7,1.7c2.2,1.1,4,2.7,5.2,4.8c1.2,2.1,1.9,4.5,1.9,7.2S600.6,642.5,599.3,644.6z"/>
	</g>
</g>
</svg>
