<?xml version="1.0" encoding="utf-8"?>
<!-- Generator: Adobe Illustrator 28.0.0, SVG Export Plug-In . SVG Version: 6.00 Build 0)  -->
<svg version="1.1" id="Слой_1" xmlns="http://www.w3.org/2000/svg" xmlns:xlink="http://www.w3.org/1999/xlink" x="0px" y="0px"
	 viewBox="0 0 800 800" style="enable-background:new 0 0 800 800;" xml:space="preserve">
<g>
	<path d="M184.7,518.2c-3.1-0.8-6.5-0.1-10.2,2.1l-14.2,8.5l2.8,4.6l14-8.4c2.6-1.6,4.8-2.1,6.6-1.7c1.8,0.4,3.4,1.6,4.6,3.7
		c1.2,2,1.6,4,1.1,5.8c-0.5,1.8-2.1,3.5-4.6,5.1l-14,8.4l2.8,4.7l14.2-8.5c3.7-2.2,5.9-4.9,6.7-8c0.8-3.1,0.1-6.4-2-9.9
		C190.4,521.1,187.8,519,184.7,518.2z"/>
	<polygon points="177.9,497.6 159.5,505 171.9,482.5 170.2,478.4 143,489.3 145,494.3 163.4,486.9 151,509.4 152.7,513.5 
		179.9,502.6 	"/>
	<rect x="137.1" y="464.3" transform="matrix(0.9657 -0.2598 0.2598 0.9657 -116.1087 55.465)" width="29.4" height="5.5"/>
	<polygon points="161.3,442.5 150.2,444.2 148,430.2 143.4,431 145.7,445 136.8,446.4 134.3,430.6 129.8,431.3 133.2,452.5 
		162.2,447.8 	"/>
	<path d="M137.1,418.1c1.8,0.8,3.9,1.1,6,1.1c2.2,0,4.2-0.4,6-1.3c1.8-0.8,3.4-1.9,4.7-3.4c1.3-1.4,2.4-3.1,3.1-5.1
		c0.7-1.9,1.1-4.1,1-6.4c0-2.3-0.4-4.4-1.2-6.3c-0.8-1.9-1.9-3.6-3.2-5c-1.4-1.4-3-2.5-4.8-3.3s-3.9-1.1-6.1-1.1
		c-2.2,0-4.2,0.4-6,1.3c-1.8,0.8-3.4,1.9-4.7,3.4c-1.3,1.4-2.4,3.1-3.1,5.1c-0.7,1.9-1.1,4-1,6.3c0,2.3,0.4,4.4,1.2,6.3
		c0.8,1.9,1.9,3.6,3.2,5C133.7,416.2,135.3,417.3,137.1,418.1z M133.3,399.4c0.5-1.3,1.2-2.4,2.1-3.3c0.9-0.9,2-1.7,3.2-2.2
		c1.2-0.5,2.6-0.8,4.1-0.8c1.5,0,2.9,0.2,4.1,0.7c1.3,0.5,2.4,1.2,3.3,2.1c0.9,0.9,1.7,2,2.2,3.2c0.5,1.3,0.8,2.6,0.8,4.1
		c0,1.5-0.2,2.9-0.7,4.1c-0.5,1.3-1.2,2.4-2.1,3.3c-0.9,0.9-2,1.7-3.3,2.2c-1.3,0.5-2.6,0.8-4.1,0.8c-1.5,0-2.9-0.2-4.1-0.7
		c-1.3-0.5-2.4-1.2-3.3-2.1c-0.9-0.9-1.7-2-2.2-3.2c-0.5-1.2-0.8-2.6-0.8-4.1C132.6,402,132.8,400.6,133.3,399.4z"/>
	<path d="M159.2,371.3l-8.5-1.2l0.9-6.6c0.1-0.4,0.1-0.8,0.1-1.1l9.4-4.7l0.8-5.8l-10.5,5.3c0-0.1-0.1-0.3-0.1-0.5
		c-0.6-2-1.5-3.5-2.9-4.8c-1.4-1.2-3.2-2-5.3-2.3c-2.1-0.3-4-0.1-5.7,0.7c-1.7,0.8-3.1,2-4.2,3.7c-1.1,1.7-1.8,3.9-2.2,6.4l-1.7,12
		l29.1,4.2L159.2,371.3z M135.6,361.5c0.3-2.4,1.1-4.1,2.3-5.2c1.2-1.1,2.7-1.5,4.5-1.2c1.8,0.3,3.2,1.1,4,2.4
		c0.9,1.4,1.1,3.2,0.8,5.6l-0.9,6.3l-11.6-1.7L135.6,361.5z"/>
	<polygon points="165.7,336.8 147.4,331 165.4,326.6 166.1,324.3 153.7,310.2 172.3,316.1 173.8,311.2 145.8,302.3 144.4,306.6 
		159.5,323.4 137.5,328.6 136.1,332.9 164.1,341.8 	"/>
	<rect x="172.7" y="260" transform="matrix(0.4881 -0.8728 0.8728 0.4881 -149.9137 293.731)" width="5.5" height="29.4"/>
	<polygon points="199.2,263.9 183.1,252.2 208.8,250.8 211.4,247.1 187.6,229.9 184.4,234.3 200.5,245.9 174.9,247.4 172.3,251 
		196.1,268.2 	"/>
	<polygon points="223.6,233.6 215.6,225.8 225.4,215.6 222.1,212.4 212.3,222.6 205.8,216.3 217,204.9 213.7,201.7 198.8,217 
		219.8,237.5 	"/>
	<path d="M231.5,205.1c1.3,1.7,2.9,3.1,4.6,4.1c1.7,1,3.6,1.6,5.5,1.8c2,0.2,3.9,0,5.9-0.5c2-0.6,3.9-1.6,5.7-2.9
		c1.8-1.4,3.2-2.9,4.3-4.7c1.1-1.8,1.8-3.6,2.1-5.5c0.3-1.9,0.2-3.9-0.3-5.8c-0.5-1.9-1.4-3.8-2.7-5.5c-1.3-1.7-2.9-3.1-4.6-4.1
		c-1.7-1-3.6-1.6-5.5-1.8c-2-0.2-3.9,0-5.9,0.5c-2,0.6-3.9,1.5-5.7,2.9c-1.8,1.4-3.2,3-4.3,4.7c-1.1,1.8-1.8,3.6-2.1,5.6
		c-0.3,1.9-0.2,3.9,0.3,5.8C229.3,201.5,230.2,203.3,231.5,205.1z M233.8,194c0.2-1.3,0.6-2.5,1.3-3.7c0.7-1.2,1.6-2.2,2.8-3.1
		c1.2-0.9,2.4-1.5,3.7-1.9c1.3-0.4,2.6-0.5,3.9-0.3c1.3,0.2,2.5,0.6,3.7,1.3c1.2,0.7,2.2,1.6,3.1,2.8c0.9,1.2,1.5,2.5,1.9,3.8
		c0.3,1.3,0.4,2.6,0.3,3.9c-0.2,1.3-0.6,2.5-1.3,3.7c-0.7,1.2-1.6,2.2-2.8,3.1c-1.2,0.9-2.4,1.5-3.7,1.9c-1.3,0.4-2.6,0.5-3.9,0.3
		c-1.3-0.2-2.5-0.6-3.7-1.3c-1.2-0.7-2.2-1.6-3.1-2.8c-0.9-1.2-1.5-2.5-1.9-3.8C233.7,196.7,233.6,195.3,233.8,194z"/>
	<path d="M279.5,189.4l-4.1-7.5l5.8-3.2c0.3-0.2,0.7-0.4,1-0.6l9.4,4.7l5.2-2.8l-10.5-5.3c0.1-0.1,0.2-0.2,0.3-0.3
		c1.2-1.6,1.9-3.3,2.1-5.2c0.1-1.8-0.3-3.7-1.3-5.6c-1-1.9-2.3-3.3-4-4.2c-1.6-0.9-3.5-1.3-5.5-1.1c-2,0.1-4.2,0.8-6.5,2.1
		l-10.6,5.7l14,25.8L279.5,189.4z M273.3,164.6c2.1-1.1,3.9-1.6,5.5-1.3c1.6,0.3,2.8,1.3,3.7,2.9c0.9,1.6,1,3.2,0.5,4.7
		c-0.6,1.5-1.9,2.8-4,3.9l-5.6,3l-5.6-10.3L273.3,164.6z"/>
	<polygon points="311.1,174.1 304.9,155.9 319.1,167.8 321.4,167 325.3,148.7 331.7,167 336.6,165.4 327,137.6 322.8,139.1 
		318.2,161.2 300.9,146.5 296.6,148 306.1,175.8 	"/>
	<path d="M352.2,155.2l14.5-2.4l4,6.2l5.6-0.9l-17.9-26.8l-5.3,0.9l-8.3,31.1l5.5-0.9L352.2,155.2z M364.2,148.9l-10.9,1.8l3.3-13.6
		L364.2,148.9z"/>
	<polygon points="388.7,132.9 389.5,157.7 395,157.5 394.1,132.8 403.9,132.4 403.7,127.8 378.8,128.7 379,133.3 	"/>
	
		<rect x="403" y="140.6" transform="matrix(6.766918e-02 -0.9977 0.9977 6.766918e-02 246.3637 550.3736)" width="29.4" height="5.5"/>
	<path d="M435.4,155.8c1.1,1.6,2.6,3,4.4,4.1c1.8,1.1,3.8,1.9,6,2.3c2.2,0.4,4.4,0.4,6.4,0.1c2-0.4,3.9-1.1,5.5-2.1
		c1.7-1.1,3-2.4,4.2-4.1c1.1-1.7,1.9-3.6,2.3-5.7c0.4-2.1,0.4-4.2,0-6.1c-0.4-1.9-1.2-3.7-2.4-5.3c-1.1-1.6-2.6-3-4.3-4.1
		c-1.7-1.1-3.7-1.9-6-2.3c-2.2-0.4-4.4-0.4-6.4-0.1c-2,0.4-3.9,1.1-5.5,2.2c-1.7,1.1-3,2.4-4.2,4.1c-1.1,1.7-1.9,3.6-2.3,5.7
		c-0.4,2.1-0.4,4.2,0,6.1C433.5,152.5,434.3,154.2,435.4,155.8z M438.5,145.4c0.3-1.5,0.8-2.8,1.5-3.9c0.7-1.1,1.7-2.1,2.8-2.8
		s2.3-1.2,3.6-1.5c1.3-0.3,2.7-0.3,4.2,0c1.5,0.3,2.8,0.8,3.9,1.5c1.1,0.7,2.1,1.6,2.8,2.7c0.7,1.1,1.2,2.3,1.5,3.6
		c0.3,1.3,0.3,2.7,0,4.2c-0.3,1.5-0.8,2.8-1.5,3.9c-0.7,1.1-1.7,2.1-2.7,2.8c-1.1,0.7-2.3,1.2-3.6,1.5c-1.3,0.3-2.7,0.2-4.2,0
		c-1.5-0.3-2.8-0.8-3.9-1.5c-1.1-0.7-2.1-1.6-2.8-2.7s-1.2-2.3-1.5-3.6C438.2,148.3,438.2,146.9,438.5,145.4z"/>
	<polygon points="483.5,151 491.8,175.2 496,176.8 506.2,149.2 501.1,147.4 494.2,166 485.9,141.8 481.7,140.2 471.5,167.8 
		476.6,169.7 	"/>
	<path d="M531.7,186.1l5.6,3.6c2.2,1.4,4.3,2.3,6.3,2.6c2,0.3,3.9,0.1,5.6-0.7c1.7-0.8,3.1-2,4.3-3.9c1.2-1.8,1.8-3.6,1.8-5.5
		c0-1.9-0.5-3.7-1.6-5.4c-1.1-1.7-2.7-3.3-4.9-4.7l-10.1-6.6l-16,24.6l4.6,3L531.7,186.1z M540.5,172.5l5.3,3.5
		c2,1.3,3.3,2.7,3.7,4.2s0.2,3-0.8,4.6c-1,1.5-2.3,2.4-3.9,2.6c-1.6,0.2-3.4-0.4-5.4-1.7l-5.4-3.5L540.5,172.5z"/>
	<path d="M555.5,213.7l5.6-6.4l5,4.4c0.3,0.3,0.6,0.5,0.9,0.7l-1.2,10.4l4.4,3.9l1.3-11.7c0.1,0.1,0.3,0.1,0.4,0.2
		c1.9,0.6,3.8,0.7,5.6,0.1c1.8-0.5,3.4-1.6,4.8-3.2c1.4-1.6,2.3-3.4,2.5-5.2c0.3-1.8,0-3.7-0.9-5.5c-0.8-1.9-2.2-3.6-4.2-5.4l-9.1-8
		l-19.3,22.1L555.5,213.7z M579.7,203.9c0.2,1.6-0.2,3-1.5,4.5c-1.2,1.4-2.6,2.1-4.2,2c-1.6,0-3.3-0.8-5.1-2.4l-4.8-4.2l7.7-8.8
		l4.8,4.2C578.4,200.8,579.4,202.4,579.7,203.9z"/>
	<path d="M578.4,235.2l7.1-2.2l9.5,11.2l-3.3,6.6l3.7,4.3l13.8-29.1l-3.5-4.1l-30.9,9L578.4,235.2z M589.9,231.7l13.4-4.1l-6.2,12.5
		L589.9,231.7z"/>
	<path d="M606.8,256.7c-1.2,1.6-1.9,3.4-2.3,5.3c-0.4,1.9-0.4,3.9,0,5.9c0.4,2,1.2,4,2.4,5.9c1.3,2.1,2.8,3.7,4.6,5
		c1.8,1.2,3.7,2,5.8,2.3l1-4.8c-1.6-0.3-2.9-0.8-4.1-1.6c-1.2-0.8-2.2-1.9-3-3.2c-0.8-1.3-1.3-2.6-1.6-4c-0.2-1.3-0.2-2.7,0.1-3.9
		c0.3-1.3,0.8-2.5,1.6-3.6c0.8-1.1,1.8-2.1,3.1-2.9c1.3-0.8,2.6-1.3,3.9-1.5c1.3-0.2,2.7-0.2,3.9,0.1c1.3,0.3,2.5,0.9,3.6,1.7
		c1.1,0.8,2.1,1.9,2.9,3.2c0.8,1.3,1.3,2.7,1.5,4.1c0.2,1.4,0.1,2.9-0.3,4.4l4.7,1.2c0.7-2,0.8-4.1,0.5-6.2
		c-0.4-2.1-1.2-4.2-2.4-6.2c-1.2-1.9-2.6-3.5-4.3-4.7c-1.6-1.2-3.4-2.1-5.3-2.6c-1.9-0.5-3.9-0.6-5.8-0.3c-2,0.3-3.9,1-5.7,2.2
		C609.5,253.7,608,255.1,606.8,256.7z"/>
	<polygon points="620.1,297.8 622.4,302.8 644.9,292.6 648.9,301.5 653.1,299.6 642.9,276.8 638.7,278.7 642.7,287.6 	"/>
	<rect x="629.4" y="315.7" transform="matrix(0.9487 -0.3163 0.3163 0.9487 -67.6352 220.0461)" width="29.4" height="5.5"/>
	<path d="M648.8,333c-2.1,0.5-4,1.3-5.7,2.4c-1.6,1.2-3,2.6-4,4.2c-1,1.7-1.7,3.5-2,5.5c-0.3,2-0.3,4.1,0.2,6.3
		c0.5,2.4,1.4,4.5,2.6,6.2c1.2,1.8,2.8,3.2,4.6,4.2l2.5-4.1c-1.4-0.8-2.5-1.8-3.3-2.9c-0.8-1.2-1.4-2.5-1.7-4
		c-0.3-1.5-0.4-2.9-0.1-4.3c0.2-1.4,0.7-2.6,1.4-3.7c0.7-1.1,1.6-2.1,2.7-2.8c1.1-0.8,2.4-1.3,3.9-1.6c1.5-0.3,2.9-0.4,4.2-0.1
		c1.3,0.2,2.6,0.7,3.7,1.4c1.1,0.7,2,1.7,2.8,2.8c0.8,1.1,1.3,2.5,1.6,4c0.3,1.5,0.3,3,0.1,4.4c-0.3,1.4-0.9,2.7-1.8,4l4,2.8
		c1.3-1.7,2.1-3.6,2.5-5.7c0.4-2.1,0.3-4.3-0.2-6.7c-0.5-2.2-1.3-4.2-2.4-5.9c-1.1-1.7-2.5-3.1-4.1-4.2c-1.6-1.1-3.4-1.9-5.4-2.2
		C653,332.5,651,332.5,648.8,333z"/>
	<polygon points="642.9,394.9 647.4,394.6 646.3,378 654.4,377.5 655.3,391.6 659.8,391.3 658.8,377.2 666.4,376.6 667.6,392.6 
		672.1,392.2 670.6,370.9 641.3,372.9 	"/>
	<path d="M668.1,407c-1.3-0.9-2.7-1.4-4.3-1.5c-1.6-0.1-2.9,0.1-3.9,0.7c-1,0.6-1.9,1.4-2.6,2.3s-1.2,2.1-1.7,3.3
		c-0.5,1.2-0.9,2.4-1.2,3.7c-0.4,1.2-0.7,2.3-1.1,3.3c-0.4,1-0.9,1.8-1.4,2.4c-0.6,0.6-1.3,0.9-2.2,0.8c-0.7,0-1.4-0.3-1.9-0.8
		c-0.5-0.5-1-1.2-1.2-2.2c-0.3-1-0.4-2.2-0.3-3.8c0.1-1.8,0.5-3.6,1.3-5.3c0.7-1.7,1.6-3.1,2.6-4.2l-4.1-2.1
		c-1.1,1.2-2.1,2.8-2.8,4.8c-0.8,2.1-1.3,4.2-1.4,6.5c-0.2,2.7,0.1,4.9,0.8,6.7c0.7,1.8,1.7,3.2,2.9,4.1c1.3,0.9,2.7,1.4,4.3,1.5
		c1.5,0.1,2.8-0.1,3.9-0.7c1-0.6,1.9-1.3,2.5-2.3c0.7-1,1.2-2.1,1.6-3.3c0.4-1.2,0.8-2.4,1.2-3.7c0.4-1.2,0.7-2.4,1.1-3.4
		c0.4-1,0.8-1.8,1.4-2.4s1.3-0.9,2.2-0.8c0.8,0,1.4,0.3,2,0.8c0.6,0.5,1,1.2,1.3,2.1s0.4,2.2,0.3,3.7c-0.1,1.3-0.4,2.6-0.8,4
		c-0.5,1.4-1.1,2.7-2,4l4.1,2c0.9-1.2,1.7-2.7,2.2-4.4c0.6-1.7,0.9-3.4,1-5.2c0.2-2.7-0.1-4.9-0.8-6.7
		C670.4,409.3,669.4,407.9,668.1,407z"/>
	<path d="M636.5,455.3l5.8,4.6l-3.9,14.1l-7.3,1l-1.5,5.5l31.9-4.9l1.4-5.2L638,449.8L636.5,455.3z M645.9,462.8l10.9,8.7l-13.9,1.9
		L645.9,462.8z"/>
	<path d="M645.7,495.7c-1.4-1.5-3-2.6-5-3.5c-2-0.9-4-1.3-6-1.4c-2,0-3.9,0.3-5.7,1.1c-1.8,0.7-3.4,1.8-4.9,3.3
		c-1.5,1.4-2.6,3.2-3.5,5.2c-1,2.2-1.5,4.4-1.5,6.6c0,2.2,0.4,4.2,1.3,6.1l4.5-1.9c-0.6-1.4-1-2.9-0.9-4.3s0.3-2.9,1-4.3
		c0.6-1.4,1.4-2.6,2.4-3.5c1-1,2.1-1.7,3.3-2.2c1.2-0.5,2.5-0.7,3.9-0.7c1.4,0,2.7,0.4,4.1,1c1.4,0.6,2.5,1.4,3.5,2.4
		c0.9,1,1.6,2.1,2.1,3.3c0.5,1.2,0.7,2.5,0.6,3.9c-0.1,1.4-0.4,2.8-1,4.2c-0.6,1.4-1.5,2.6-2.5,3.6c-1.1,1-2.3,1.7-3.8,2.2l1.6,4.6
		c2-0.6,3.8-1.6,5.4-3.1c1.6-1.5,2.8-3.3,3.8-5.5c0.9-2.1,1.4-4.1,1.5-6.2c0.1-2-0.2-4-0.8-5.8S647.1,497.2,645.7,495.7z"/>
	<polygon points="629.2,537.8 608.1,524.8 605.2,529.5 626.3,542.5 621.2,550.7 625.1,553.2 638.2,532 634.3,529.5 	"/>
	<path d="M400,97C232.9,97,97,232.9,97,400s135.9,303,303,303s303-135.9,303-303S567.1,97,400,97z M400,691.7
		c-160.8,0-291.7-130.8-291.7-291.7S239.2,108.3,400,108.3S691.7,239.2,691.7,400S560.8,691.7,400,691.7z"/>
	<path d="M205.7,565.1c-3.9,0-7.1,3.2-7.1,7.1c0,3.9,3.2,7.1,7.1,7.1c3.9,0,7.1-3.2,7.1-7.1C212.8,568.3,209.6,565.1,205.7,565.1z"
		/>
	<path d="M594.3,565.1c-3.9,0-7.1,3.2-7.1,7.1c0,3.9,3.2,7.1,7.1,7.1s7.1-3.2,7.1-7.1C601.4,568.3,598.2,565.1,594.3,565.1z"/>
	<path d="M273,599.9l-13.1,18.7c-2.4,3.5-4.9,5.5-7.5,6c-2.6,0.5-5.2-0.1-7.9-2.1c-2.7-1.9-4.3-4.2-4.7-6.8
		c-0.4-2.6,0.6-5.6,3.1-9.1L256,588l-6.2-4.4l-13.3,19c-3.4,4.9-4.8,9.6-4,14c0.8,4.4,3.5,8.3,8.1,11.5c4.6,3.2,9.1,4.4,13.5,3.7
		c4.4-0.8,8.4-3.6,11.8-8.5l13.3-19L273,599.9z"/>
	<rect x="266.9" y="627.4" transform="matrix(0.4387 -0.8986 0.8986 0.4387 -405.9387 612.5588)" width="41" height="7.6"/>
	<path d="M338.7,630.7c-2.1-1.9-4.9-3.4-8.4-4.5l-16.1-5.1l-12.3,39.2l7.3,2.3l3.5-11.3l8.8,2.8c3.5,1.1,6.6,1.5,9.5,1.1
		c2.8-0.3,5.2-1.3,7.2-3c2-1.7,3.4-3.9,4.3-6.8c0.9-2.9,1-5.6,0.3-8.1C342.2,634.8,340.8,632.6,338.7,630.7z M335.3,643.1
		c-0.8,2.5-2.2,4.1-4.2,5c-2,0.9-4.7,0.8-7.9-0.2l-8.5-2.7l4.9-15.6l8.5,2.7c3.2,1,5.4,2.4,6.6,4.3
		C335.8,638.4,336,640.6,335.3,643.1z"/>
	<path d="M369.2,634.7l-23,38.7l7.8,0.9l5.1-9l20.4,2.3l3,9.9l7.9,0.9l-13.7-42.9L369.2,634.7z M362.3,659.7l9.7-17l5.6,18.7
		L362.3,659.7z"/>
	<path d="M409.7,668.2c-1.3,0-2.4,0.5-3.4,1.4c-0.9,0.9-1.3,2.1-1.3,3.6c0,1.4,0.6,2.6,1.5,3.4c1,0.9,2.1,1.3,3.4,1.3
		c1.3,0,2.4-0.5,3.4-1.5c0.9-0.9,1.3-2.1,1.3-3.5c0-1.5-0.6-2.7-1.5-3.5C412.2,668.6,411,668.2,409.7,668.2z"/>
	<path d="M466.2,640.9c-1.5-2.3-3.5-4.2-5.8-5.7c-2.3-1.5-4.9-2.5-7.7-3.1c-2.8-0.5-5.8-0.5-9,0.1c-3.1,0.6-5.9,1.6-8.4,3.2
		c-2.5,1.5-4.5,3.4-6.1,5.6c-1.6,2.2-2.7,4.7-3.3,7.4c-0.6,2.7-0.6,5.6-0.1,8.6c0.6,3,1.6,5.7,3.2,8c1.5,2.3,3.5,4.2,5.8,5.7
		c2.3,1.5,4.9,2.5,7.7,3.1c2.8,0.5,5.8,0.5,9-0.1c3.1-0.6,5.9-1.6,8.3-3.2c2.4-1.5,4.5-3.4,6.1-5.6c1.6-2.2,2.7-4.7,3.3-7.4
		c0.6-2.7,0.6-5.6,0.1-8.6S467.7,643.2,466.2,640.9z M461.7,656.1c-0.4,1.8-1.1,3.5-2.1,5.1c-1,1.5-2.3,2.8-3.9,3.8
		c-1.6,1-3.4,1.7-5.5,2.1c-2,0.4-4,0.4-5.8,0c-1.9-0.4-3.5-1.1-5-2.1c-1.5-1.1-2.8-2.4-3.8-4c-1-1.6-1.7-3.4-2.1-5.5
		c-0.4-2.1-0.4-4,0-5.9c0.4-1.8,1.1-3.5,2.2-5.1c1-1.5,2.4-2.8,3.9-3.8c1.6-1,3.4-1.7,5.4-2.1c2-0.4,4-0.4,5.8,0
		c1.9,0.4,3.5,1.1,5,2.1c1.5,1.1,2.8,2.4,3.8,3.9c1,1.6,1.7,3.4,2.1,5.5C462.1,652.3,462.1,654.3,461.7,656.1z"/>
	<path d="M511.6,639.7c2-2.1,3.2-4.4,3.6-6.9c0.5-2.5,0.1-5.2-1.1-8c-1.2-2.8-2.8-4.9-5-6.4c-2.1-1.5-4.6-2.3-7.5-2.3
		c-2.9-0.1-6,0.6-9.3,2l-15.6,6.5l15.9,37.9l7-2.9l-4.6-11l8.5-3.6c0.5-0.2,1-0.4,1.4-0.7l12.4,7.9l7.6-3.2l-13.9-8.8
		C511.3,640,511.5,639.8,511.6,639.7z M492.7,642.7l-6.3-15.1l8.2-3.4c3.1-1.3,5.7-1.6,7.8-1c2.1,0.6,3.7,2.2,4.7,4.6
		c1,2.4,1,4.6,0,6.6c-1,2-3.1,3.6-6.2,4.9L492.7,642.7z"/>
	<path d="M553.9,605.9l7.2,10.5c-0.4,0.9-0.9,1.7-1.4,2.4c-1.2,1.6-2.6,3-4.3,4.1c-1.8,1.2-3.7,2.1-5.5,2.5
		c-1.9,0.4-3.7,0.5-5.6,0.2c-1.8-0.3-3.5-1-5.1-2.1c-1.6-1-3-2.4-4.1-4.1c-1.2-1.7-2-3.5-2.4-5.4c-0.4-1.9-0.4-3.7,0-5.5
		c0.4-1.8,1.1-3.5,2.2-5.1c1.1-1.6,2.6-3,4.3-4.2c1.8-1.3,3.7-2.1,5.7-2.5c2-0.4,4.1-0.4,6.3,0l1.3-6.6c-2.8-0.7-5.7-0.8-8.6-0.1
		c-2.9,0.6-5.9,1.9-8.7,3.9c-2.6,1.8-4.8,3.9-6.4,6.3c-1.6,2.4-2.8,4.9-3.3,7.6c-0.6,2.7-0.6,5.4-0.1,8.2c0.6,2.8,1.7,5.4,3.4,7.9
		c1.7,2.5,3.8,4.5,6.1,6s4.9,2.5,7.6,2.9c2.7,0.4,5.5,0.3,8.3-0.3c2.8-0.7,5.5-1.9,8.2-3.7c2.4-1.6,4.5-3.6,6.3-5.9
		c1.8-2.3,3.2-4.8,4-7.4l-9.2-13.5L553.9,605.9z"/>
	<polygon points="296,233.1 343.6,307.6 351.6,307.6 309.1,225.6 	"/>
	<polygon points="264,258.3 312.5,307.6 323.9,307.6 275.2,248.2 	"/>
	<polygon points="237.9,289.7 265,307.6 284.4,307.6 246.7,277.5 	"/>
	<polygon points="372.2,205.1 387.7,307.6 393.3,307.6 387.2,203.6 	"/>
	<polygon points="332.7,215.1 367.4,307.6 373.7,307.6 347,210.5 	"/>
	<polygon points="490.8,225.6 448.4,307.6 456.3,307.6 503.9,233.1 	"/>
	<polygon points="524.8,248.2 476.1,307.6 487.5,307.6 536,258.3 	"/>
	<polygon points="553.2,277.5 515.6,307.6 535,307.6 562.1,289.7 	"/>
	<polygon points="412.7,203.6 406.7,307.6 412.3,307.6 427.8,205.1 	"/>
	<polygon points="452.9,210.5 426.3,307.6 432.6,307.6 467.3,215.1 	"/>
	<path d="M623,400c0-59.6-23.2-115.6-65.3-157.7c-42.1-42.1-98.1-65.3-157.7-65.3c0,0,0,0,0,0c0,0,0,0,0,0
		c-59.6,0-115.6,23.2-157.7,65.3c-42.1,42.1-65.3,98.1-65.3,157.7c0,59.6,23.2,115.6,65.3,157.7c42.1,42.1,98.1,65.3,157.7,65.3
		c0,0,0,0,0,0c0,0,0,0,0,0c59.6,0,115.6-23.2,157.7-65.3C599.8,515.6,623,459.6,623,400z M575.2,505h-21.3v-96.4l21.3-9.8V505z
		 M610.4,400c0,35.3-8.8,68.6-24.2,97.9c-0.9,1.7-1.9,3.5-2.8,5.2v-0.6V395.1l26.3-12.1C610.5,388.9,610.4,396.9,610.4,400z
		 M400,189.6c82.9,0,158.9,48.3,193.1,126.9H206.9C241.1,237.9,317.1,189.6,400,189.6z M591.5,323.8v44.5h-5.6v-44.5H591.5z
		 M568.2,323.8v44.5h-5.6v-44.5H568.2z M545,323.8v44.5h-5.6v-44.5H545z M521.7,323.8v44.5H516v-44.5H521.7z M498.4,323.8v44.5h-5.6
		v-44.5H498.4z M470.6,323.8v44.5H463v0v-44.4H470.6z M437.2,323.8v44.5h-7.6v-44.5H437.2z M403.9,323.8v44.5h-7.7v-44.5H403.9z
		 M370.4,323.8v44.5h-7.6v-44.5H370.4z M337,323.8v44.4v0h-7.6v-44.5H337z M307.2,323.8v44.5h-5.6v-44.5H307.2z M283.9,323.8v44.5
		h-5.6v-44.5H283.9z M260.6,323.8v44.5H255v-44.5H260.6z M237.4,323.8v44.5h-5.6v-44.5H237.4z M214.1,323.8v44.5h-5.6v-44.5H214.1z
		 M599.1,379.8l-63.7,29.3H264.6l-63.7-29.3H599.1z M545.8,412.4V505h-23v-48.8l13.9-8.7v-31.1l0.3,0L545.8,412.4z M445.2,472.7
		c-2.3-0.6-4.8-1.2-7.4-1.7v-16H511l-27.9,17.6L445.2,472.7z M480.5,480V505h-7.3l-13-22.1c0,0-1.1-1.3-2.4-2.9L480.5,480z
		 M488.6,477.8l26.1-16.4V505h-26.1V477.8z M316.9,472.5L289,455h73.2v16c-2.7,0.5-5.2,1.1-7.4,1.7L316.9,472.5z M342.2,480.1
		c-1.3,1.5-2.4,2.9-2.4,2.9l-13,22.1h-7.3V480L342.2,480.1z M311.4,477.8V505h-26.1v-43.6L311.4,477.8z M277.2,456.3V505h-23v-92.6
		l8.8,4l0.3,0v31.1L277.2,456.3z M216.6,502.5v0.6c-1-1.7-1.9-3.4-2.8-5.2c-15.4-29.3-24.2-62.6-24.2-97.9c0-3.1-0.1-11.1,0.7-17
		l26.3,12.1V502.5z M224.7,398.9l21.3,9.8V505h-21.3V398.9z M246.7,544.2l-9.9-11.4l27.9-18.5h19.5L247,544L246.7,544.2z
		 M265.7,561.5l46.7-47.3h11.4l-46.4,56.4C273.4,567.8,269.5,564.7,265.7,561.5z M298.8,584.2l44.8-69.9h7.9l-39.7,76.5
		C307.4,588.7,303,586.5,298.8,584.2z M335,599.9l32.3-85.7h6.3l-24.7,89.7C344.2,602.7,339.6,601.4,335,599.9z M387.6,609.8
		c-4.8-0.3-9.6-0.7-14.3-1.3l14.4-94.3h5.6L387.6,609.8z M400,467.7c-10.8,0-20.9,0.7-29.7,1.9V455h59.3v14.7
		C420.9,468.4,400,467.7,400,467.7z M412.4,609.8l-5.7-95.6h5.6l14.4,94.3C422,609.1,417.2,609.6,412.4,609.8z M451.1,603.9
		l-24.7-89.7h6.3l32.3,85.7C460.4,601.4,455.8,602.7,451.1,603.9z M488.2,590.8l-39.7-76.5h7.9l44.8,69.9
		C497,586.5,492.6,588.7,488.2,590.8z M522.6,570.7l-46.4-56.4h11.4l46.7,47.3C530.5,564.7,526.6,567.8,522.6,570.7z M553,544
		l-37.2-29.7h19.5l27.9,18.5l-9.9,11.4L553,544z"/>
</g>
</svg>
