<?xml version="1.0" encoding="utf-8"?>
<!-- Generator: Adobe Illustrator 28.0.0, SVG Export Plug-In . SVG Version: 6.00 Build 0)  -->
<svg version="1.1" id="Слой_1" xmlns="http://www.w3.org/2000/svg" xmlns:xlink="http://www.w3.org/1999/xlink" x="0px" y="0px"
	 viewBox="0 0 800 800" style="enable-background:new 0 0 800 800;" xml:space="preserve">
<style type="text/css">
	.st0{fill:#FFFFFF;}
</style>
<rect width="800" height="800"/>
<g>
	<g>
		<polygon class="st0" points="141.5,322 163.8,356.8 167.5,356.8 147.6,318.4 		"/>
		<polygon class="st0" points="126.5,333.8 149.2,356.8 154.5,356.8 131.8,329 		"/>
		<polygon class="st0" points="114.3,348.4 127,356.8 136.1,356.8 118.4,342.7 		"/>
		<polygon class="st0" points="177.1,308.9 184.3,356.8 187,356.8 184.1,308.2 		"/>
		<polygon class="st0" points="158.6,313.6 174.9,356.8 177.8,356.8 165.3,311.4 		"/>
		<polygon class="st0" points="232.6,318.4 212.8,356.8 216.5,356.8 238.7,322 		"/>
		<polygon class="st0" points="248.4,329 225.7,356.8 231,356.8 253.7,333.8 		"/>
		<polygon class="st0" points="261.8,342.7 244.1,356.8 253.2,356.8 265.9,348.4 		"/>
		<polygon class="st0" points="196.1,308.2 193.2,356.8 195.9,356.8 203.1,308.9 		"/>
		<polygon class="st0" points="214.9,311.4 202.4,356.8 205.4,356.8 221.6,313.6 		"/>
		<path class="st0" d="M294.4,400c0-27.9-10.8-54.1-30.5-73.8c-19.7-19.7-45.9-30.5-73.7-30.5c0,0,0,0,0,0s0,0,0,0
			c-27.9,0-54,10.9-73.7,30.5c-19.7,19.7-30.5,45.9-30.5,73.8c0,27.9,10.8,54.1,30.5,73.8c19.7,19.7,45.9,30.5,73.7,30.5
			c0,0,0,0,0,0s0,0,0,0c27.9,0,54-10.9,73.7-30.5C283.6,454.1,294.4,427.9,294.4,400z M272,449.1h-10v-45.1l10-4.6V449.1z
			 M288.5,400c0,16.5-4.1,32.1-11.3,45.8c-0.4,0.8-0.9,1.6-1.3,2.4v-0.3v-50.2l12.3-5.7C288.5,394.8,288.5,398.6,288.5,400z
			 M190.1,301.6c38.8,0,74.3,22.6,90.3,59.3H99.8C115.8,324.2,151.3,301.6,190.1,301.6z M279.7,364.4v20.8H277v-20.8H279.7z
			 M268.8,364.4v20.8h-2.6v-20.8H268.8z M257.9,364.4v20.8h-2.6v-20.8H257.9z M247,364.4v20.8h-2.6v-20.8H247z M236.1,364.4v20.8
			h-2.6v-20.8H236.1z M223.1,364.4v20.8h-3.6v0v-20.8H223.1z M207.5,364.4v20.8H204v-20.8H207.5z M191.9,364.4v20.8h-3.6v-20.8
			H191.9z M176.3,364.4v20.8h-3.6v-20.8H176.3z M160.7,364.4v20.8v0h-3.6v-20.8H160.7z M146.7,364.4v20.8h-2.6v-20.8H146.7z
			 M135.8,364.4v20.8h-2.6v-20.8H135.8z M124.9,364.4v20.8h-2.6v-20.8H124.9z M114.1,364.4v20.8h-2.6v-20.8H114.1z M103.2,364.4
			v20.8h-2.6v-20.8H103.2z M283.2,390.6l-29.8,13.7H126.8L97,390.6H283.2z M258.3,405.8v43.3h-10.7v-22.8l6.5-4.1v-14.5l0.1,0
			L258.3,405.8z M211.3,434c-1.1-0.3-2.2-0.6-3.5-0.8v-7.5H242l-13.1,8.2L211.3,434z M227.7,437.4v11.7h-3.4l-6.1-10.3
			c0,0-0.5-0.6-1.1-1.3L227.7,437.4z M231.5,436.4l12.2-7.7v20.4h-12.2V436.4z M151.3,433.9l-13-8.2h34.2v7.5
			c-1.3,0.2-2.4,0.5-3.5,0.8L151.3,433.9z M163.1,437.4c-0.6,0.7-1.1,1.3-1.1,1.3l-6.1,10.3h-3.4v-11.7L163.1,437.4z M148.7,436.4
			v12.7h-12.2v-20.4L148.7,436.4z M132.7,426.3v22.8h-10.7v-43.3l4.1,1.9l0.1,0v14.5L132.7,426.3z M104.4,447.9v0.3
			c-0.4-0.8-0.9-1.6-1.3-2.4c-7.2-13.7-11.3-29.3-11.3-45.8c0-1.4,0-5.2,0.3-7.9l12.3,5.7V447.9z M108.2,399.5l10,4.6v45.1h-10
			V399.5z M118.4,467.4l-4.6-5.3l13.1-8.7h9.1l-17.4,13.9L118.4,467.4z M127.3,475.5l21.8-22.1h5.3l-21.7,26.4
			C130.9,478.4,129.1,477,127.3,475.5z M142.8,486.1l21-32.7h3.7l-18.6,35.8C146.8,488.2,144.8,487.2,142.8,486.1z M159.7,493.5
			l15.1-40.1h2.9l-11.6,41.9C164,494.8,161.9,494.2,159.7,493.5z M184.3,498.1c-2.2-0.1-4.5-0.3-6.7-0.6l6.7-44.1h2.6L184.3,498.1z
			 M190.1,431.6c-5,0-9.8,0.3-13.9,0.9v-6.9H204v6.9C199.9,432,190.1,431.6,190.1,431.6z M195.9,498.1l-2.7-44.7h2.6l6.7,44.1
			C200.4,497.8,198.2,498,195.9,498.1z M214,495.4l-11.6-41.9h2.9l15.1,40.1C218.3,494.2,216.2,494.8,214,495.4z M231.3,489.2
			l-18.6-35.8h3.7l21,32.7C235.4,487.2,233.4,488.2,231.3,489.2z M247.4,479.8l-21.7-26.4h5.3l21.8,22.1
			C251.1,477,249.3,478.4,247.4,479.8z M261.6,467.3l-17.4-13.9h9.1l13.1,8.7l-4.6,5.3L261.6,467.3z"/>
	</g>
	<g>
		<path class="st0" d="M375.4,415.2c0,5.8-1.2,10.1-3.7,12.7c-2.5,2.6-6,4-10.6,4c-4.6,0-8.1-1.3-10.7-4c-2.5-2.6-3.8-6.9-3.8-12.7
			v-31.6H336v32c0,8.3,2.2,14.6,6.6,19c4.4,4.4,10.5,6.6,18.3,6.6c7.7,0,13.8-2.2,18.2-6.6c4.4-4.4,6.6-10.7,6.6-19v-32h-10.4V415.2
			z"/>
		<rect x="403.7" y="383.6" class="st0" width="10.5" height="56.8"/>
		<path class="st0" d="M469.1,386c-3.6-1.6-7.9-2.4-12.9-2.4h-23.4v56.8h10.5V424h12.8c5,0,9.3-0.8,12.9-2.4c3.6-1.6,6.4-3.9,8.3-7
			c1.9-3,2.9-6.6,2.9-10.8c0-4.2-1-7.8-2.9-10.8C475.5,390,472.7,387.7,469.1,386z M466.2,412.1c-2.4,2-5.9,3-10.5,3h-12.3v-22.5
			h12.3c4.6,0,8.1,1,10.5,2.9c2.4,1.9,3.5,4.7,3.5,8.4C469.7,407.4,468.6,410.1,466.2,412.1z"/>
		<path class="st0" d="M508.8,383.6l-25.5,56.8h10.9l5.6-13.1h28.4l5.6,13.1h11l-25.6-56.8H508.8z M503.3,418.9l10.6-24.8l10.7,24.8
			H503.3z"/>
		<path class="st0" d="M560.2,427.5c-1.8,0-3.4,0.6-4.7,1.8c-1.3,1.2-1.9,2.9-1.9,4.9c0,1.9,0.6,3.6,1.9,4.8
			c1.3,1.3,2.9,1.9,4.7,1.9c1.8,0,3.4-0.6,4.7-1.9c1.3-1.3,1.9-2.9,1.9-4.8c0-2.1-0.6-3.7-1.9-4.9
			C563.6,428.1,562.1,427.5,560.2,427.5z"/>
		<path class="st0" d="M610.6,399.4c-3.5-1.9-7.5-2.8-12-2.8c-4.4,0-8.4,0.9-11.8,2.8c-3.5,1.9-6.2,4.5-8.2,7.8c-2,3.3-3,7.1-3,11.5
			c0,4.3,1,8.1,3,11.4c2,3.4,4.7,6,8.2,7.9c3.5,1.9,7.4,2.9,11.8,2.9c4.5,0,8.5-1,12-2.9c3.5-1.9,6.2-4.6,8.2-7.9
			c2-3.4,3-7.2,3-11.4c0-4.4-1-8.2-3-11.5C616.8,403.9,614.1,401.3,610.6,399.4z M609.9,425.9c-1.1,2.1-2.6,3.6-4.6,4.7
			c-1.9,1.1-4.2,1.6-6.6,1.6c-2.4,0-4.6-0.5-6.5-1.6c-1.9-1.1-3.4-2.6-4.6-4.7c-1.1-2.1-1.7-4.5-1.7-7.2c0-2.8,0.6-5.2,1.7-7.3
			c1.1-2,2.7-3.6,4.6-4.7c1.9-1.1,4.1-1.6,6.6-1.6c2.4,0,4.6,0.5,6.6,1.6c1.9,1.1,3.5,2.6,4.6,4.7c1.1,2,1.7,4.4,1.7,7.3
			C611.5,421.5,611,423.9,609.9,425.9z"/>
		<path class="st0" d="M644.4,403.4v-6.3h-9.6v43.3h10.1v-21c0-4.4,1.1-7.8,3.4-10c2.3-2.2,5.3-3.4,9.2-3.4c0.4,0,0.8,0,1.1,0
			c0.4,0,0.8,0.1,1.2,0.2v-9.6c-4.2,0-7.6,0.8-10.4,2.3C647.3,400,645.6,401.5,644.4,403.4z"/>
		<path class="st0" d="M704.5,397.1v5.8c-1.4-1.7-3.1-3.1-5.1-4.1c-2.9-1.5-6.2-2.2-9.9-2.2c-4.1,0-7.8,0.9-11.1,2.6
			c-3.3,1.7-5.9,4.2-7.9,7.3c-1.9,3.1-2.9,6.8-2.9,10.9c0,4.2,1,7.9,2.9,11c1.9,3.1,4.5,5.6,7.9,7.3c3.3,1.8,7,2.6,11.1,2.6
			c3.7,0,7-0.7,9.9-2.2c1.8-0.9,3.3-2.1,4.6-3.6v2.3c0,4.4-1.1,7.7-3.3,9.9c-2.2,2.2-5.7,3.3-10.5,3.3c-3,0-5.9-0.5-8.8-1.4
			c-2.9-0.9-5.3-2.2-7.2-3.8l-4.5,7.6c2.4,2,5.6,3.5,9.4,4.6c3.8,1.1,7.7,1.6,11.7,1.6c7.6,0,13.4-1.9,17.4-5.6c4-3.7,6-9.5,6-17.3
			v-36.7H704.5z M702.6,423.9c-1.1,1.9-2.7,3.3-4.7,4.4c-2,1.1-4.3,1.6-6.8,1.6c-2.5,0-4.8-0.5-6.9-1.6c-2-1.1-3.6-2.5-4.7-4.4
			c-1.1-1.9-1.7-4-1.7-6.4s0.6-4.6,1.7-6.4c1.1-1.9,2.7-3.3,4.7-4.3c2-1,4.3-1.5,6.9-1.5c2.5,0,4.8,0.5,6.8,1.5c2,1,3.6,2.4,4.7,4.3
			c1.1,1.9,1.7,4,1.7,6.4S703.7,422,702.6,423.9z"/>
	</g>
</g>
</svg>
