<?xml version="1.0" encoding="utf-8"?>
<!-- Generator: Adobe Illustrator 28.0.0, SVG Export Plug-In . SVG Version: 6.00 Build 0)  -->
<svg version="1.1" id="Слой_1" xmlns="http://www.w3.org/2000/svg" xmlns:xlink="http://www.w3.org/1999/xlink" x="0px" y="0px"
	 viewBox="0 0 800 800" style="enable-background:new 0 0 800 800;" xml:space="preserve">
<g>
	<polygon points="263.6,181 326,278.7 336.4,278.7 280.8,171.1 	"/>
	<polygon points="221.5,214.1 285.2,278.7 300.1,278.7 236.2,200.8 	"/>
	<polygon points="187.2,255.2 222.9,278.7 248.3,278.7 198.9,239.2 	"/>
	<polygon points="363.5,144.3 383.8,278.7 391.2,278.7 383.3,142.2 	"/>
	<polygon points="311.6,157.4 357.2,278.7 365.5,278.7 330.5,151.3 	"/>
	<polygon points="519.2,171.1 463.6,278.7 474,278.7 536.4,181 	"/>
	<polygon points="563.8,200.8 499.9,278.7 514.8,278.7 578.5,214.1 	"/>
	<polygon points="601.1,239.2 551.7,278.7 577.1,278.7 612.8,255.2 	"/>
	<polygon points="416.7,142.2 408.8,278.7 416.2,278.7 436.5,144.3 	"/>
	<polygon points="469.5,151.3 434.5,278.7 442.8,278.7 488.4,157.4 	"/>
	<path d="M692.7,400c0-78.2-30.5-151.7-85.7-207c-55.3-55.3-128.8-85.7-207-85.7c0,0,0,0,0,0s0,0,0,0c-78.2,0-151.7,30.5-207,85.7
		c-55.3,55.3-85.7,128.8-85.7,207c0,78.2,30.5,151.7,85.7,207c55.3,55.3,128.8,85.7,207,85.7c0,0,0,0,0,0s0,0,0,0
		c78.2,0,151.7-30.5,207-85.7C662.3,551.7,692.7,478.2,692.7,400z M630,537.8h-28V411.4l28-12.9V537.8z M676.1,400
		c0,46.4-11.5,90.1-31.8,128.5c-1.2,2.3-2.4,4.5-3.7,6.8v-0.7V393.6l34.6-15.9C676.2,385.5,676.1,396,676.1,400z M400,123.9
		c108.8,0,208.5,63.4,253.4,166.5H146.6C191.5,187.3,291.2,123.9,400,123.9z M651.4,300v58.4H644V300H651.4z M620.8,300v58.4h-7.4
		V300H620.8z M590.3,300v58.4h-7.4V300H590.3z M559.7,300v58.4h-7.4V300H559.7z M529.1,300v58.4h-7.4V300H529.1z M492.6,300v58.4
		h-10v-0.1V300H492.6z M448.8,300v58.4h-10V300H448.8z M405.1,300v58.4h-10.1V300H405.1z M361.1,300v58.4h-10V300H361.1z M317.4,300
		v58.3v0.1h-10V300H317.4z M278.3,300v58.4h-7.4V300H278.3z M247.7,300v58.4h-7.4V300H247.7z M217.1,300v58.4h-7.4V300H217.1z
		 M186.6,300v58.4h-7.4V300H186.6z M156,300v58.4h-7.4V300H156z M661.3,373.5l-83.6,38.4H222.3l-83.6-38.4H661.3z M591.3,416.3
		v121.5h-30.1v-64l18.2-11.5v-40.8l0.4,0L591.3,416.3z M459.4,495.4c-3-0.8-6.2-1.6-9.8-2.3v-21h96L509,495.2L459.4,495.4z
		 M505.6,505v32.9h-9.5l-17-29c0,0-1.4-1.8-3.1-3.8L505.6,505z M516.3,502.1l34.2-21.6v57.3h-34.2V502.1z M291,495.2l-36.6-23.1h96
		v21c-3.5,0.7-6.8,1.4-9.8,2.3L291,495.2z M324.1,505.1c-1.7,2-3.1,3.8-3.1,3.8l-17,29h-9.5V505L324.1,505.1z M283.7,502.1v35.7
		h-34.2v-57.3L283.7,502.1z M238.8,473.8v64h-30.1V416.3l11.5,5.3l0.4,0v40.8L238.8,473.8z M159.3,534.5v0.7
		c-1.3-2.2-2.5-4.5-3.7-6.8c-20.3-38.4-31.8-82.1-31.8-128.5c0-4-0.1-14.5,0.9-22.3l34.6,15.9V534.5z M170,398.5l28,12.9v126.5h-28
		V398.5z M198.8,589.3l-13-15l36.7-24.3H248l-48.8,39L198.8,589.3z M223.7,612l61.3-62H300l-60.8,74
		C233.8,620.2,228.7,616.2,223.7,612z M267.1,641.7l58.8-91.7h10.4l-52.1,100.4C278.4,647.7,272.7,644.8,267.1,641.7z M314.8,662.4
		L357.1,550h8.3L333,667.6C326.8,666.1,320.7,664.3,314.8,662.4z M383.7,675.4c-6.3-0.4-12.6-0.9-18.8-1.7L383.8,550h7.4
		L383.7,675.4z M400,488.8c-14.2,0-27.4,1-38.9,2.5v-19.2h77.9v19.2C427.5,489.8,400,488.8,400,488.8z M416.3,675.4L408.8,550h7.4
		L435,673.7C428.9,674.5,422.6,675,416.3,675.4z M467,667.6L434.6,550h8.3l42.4,112.4C479.3,664.3,473.2,666.1,467,667.6z
		 M515.7,650.4L463.7,550h10.4l58.8,91.7C527.3,644.8,521.6,647.7,515.7,650.4z M560.9,624L500,550H515l61.3,62
		C571.3,616.2,566.2,620.2,560.9,624z M600.8,588.9L552,550h25.6l36.7,24.3l-13,15L600.8,588.9z"/>
</g>
</svg>
